# xmcd
#
# Track frame offsets:
#	150
#	3287
#	20045
#	37412
#	62155
#	83958
#	107773
#	141724
#	156064
#	171012
#	195870
#	217773
#	249932
#	261984
#	277218
#
# Disc length: 3941 seconds
#
# Revision: 0
# Processed by: cddbd v1.5.1PL0 Copyright (c) Steve Scherf et al.
# Submitted via: audiograbber 1.83.01
#
DISCID=d70f630f
DTITLE=Various Artist - Блюз HARP фестиваль
DYEAR=2002
DGENRE=Blues
TTITLE0=Вступление
TTITLE1=Summer time
TTITLE2=John Henry
TTITLE3=My funny Valentine
TTITLE4=Май месяц
TTITLE5=Подледный лов
TTITLE6=Темная ночь
TTITLE7=One dime blues
TTITLE8=Don't start me talkin'
TTITLE9=Shake your moneymaker
TTITLE10=Torn down
TTITLE11=Hoochie Coochie girl
TTITLE12=Goin' down
TTITLE13=Bluesmakers jam
TTITLE14=Mad jam (Mojo workin')
EXTD=
EXTT0=
EXTT1=
EXTT2=
EXTT3=
EXTT4=
EXTT5=
EXTT6=
EXTT7=
EXTT8=
EXTT9=
EXTT10=
EXTT11=
EXTT12=
EXTT13=
EXTT14=
PLAYORDER=
